# Blender v2.79 (sub 0) OBJ File: ''
# www.blender.org
mtllib calf.mtl
o LowerBody.009
v -1.933917 -2.598502 48.979420
v -2.223048 0.825377 44.699585
v -1.692230 0.692290 48.708298
v -2.255098 -2.153467 44.699585
v -4.306586 -5.082787 50.083195
v -2.255098 -2.153467 44.699585
v -1.933917 -2.598502 48.979420
v -4.031524 -4.194970 44.699585
v -7.211349 -6.088221 50.564728
v -6.793631 -5.218487 44.699585
v -9.755181 -5.564120 50.816692
v -8.957868 -4.848752 44.699585
v -11.772534 -3.890279 50.816692
v -10.857236 -2.999280 44.699585
v -12.827730 -0.432292 50.816692
v -11.858207 -0.386569 44.699585
v -12.232256 1.816866 50.816692
v -11.508361 2.147885 44.699585
v -7.518432 6.067200 50.564728
v -9.260132 4.832076 44.699585
v -9.755184 5.543097 50.816692
v -7.156213 5.055581 44.699585
v -5.079501 5.543099 50.083195
v -5.181203 4.748789 44.699585
v -2.902154 3.827326 49.193279
v -3.297138 3.442519 44.653305
v -1.005929 -3.077294 52.959778
v -0.917034 0.728810 53.004074
v -1.005929 -3.077294 52.959778
v -4.304338 -6.256487 55.065018
v -7.161407 -7.272417 55.872768
v -9.933331 -6.711362 56.495731
v -12.589525 -4.117110 57.120544
v -13.689145 -0.414370 57.405170
v -12.914536 1.875314 57.301323
v -11.548368 4.057714 56.984306
v -11.331685 4.050579 50.816692
v -9.978997 5.649184 56.615261
v -7.847865 6.900773 55.933186
v -5.104863 6.106671 55.005623
v -2.228426 4.388412 53.851776
v -5.666141 4.052226 40.318226
v -4.167768 2.587444 37.972286
v -6.813055 3.755170 38.330780
v -3.774917 2.795764 40.318226
v -2.782799 0.524389 37.574440
v -2.685744 0.570786 40.318226
v -7.656146 4.161301 40.318226
v -2.673172 -1.779238 40.318226
v -10.477677 2.686436 40.318226
v -10.936529 -0.425405 40.318226
v -10.877931 3.611765 44.699585
v -3.205481 -1.608464 36.791164
v -4.311141 -3.598706 38.825829
v -4.249689 -3.385372 36.525417
v -4.348733 -3.729207 40.318226
v -2.673172 -1.779238 40.318226
v -3.205481 -1.608464 36.791164
v -9.698955 2.602945 37.979462
v -10.076888 -2.301237 36.610210
v -10.250240 -2.614257 40.318226
v -10.896556 0.243578 37.489468
v -6.942768 -4.526862 40.318226
v -8.850431 -4.166434 40.318226
v -1.441411 -2.840975 53.026924
v -1.408090 0.639970 53.035248
v -2.583630 4.038777 53.891594
v -5.295160 5.644301 55.006756
v -7.734829 6.415034 55.968975
v -9.666813 5.259353 56.591328
v -11.155551 3.749496 56.957928
v -12.453884 1.681244 57.312988
v -13.022792 -0.401310 57.434025
v -11.842456 -3.875104 57.137829
v -9.666810 -6.291191 56.544952
v -7.161614 -6.776471 55.936314
v -4.522243 -5.809858 55.120159
v -1.441411 -2.840975 53.026924
v -8.921916 -4.075408 36.960964
vt 0.544808 0.365991
vt 0.493637 0.229716
vt 0.497047 0.359499
vt 0.540620 0.229716
vt 0.069679 0.377375
vt 0.015928 0.229716
vt 0.020116 0.347101
vt 0.058490 0.229716
vt 0.115873 0.390582
vt 0.108298 0.229716
vt 0.153568 0.406937
vt 0.146394 0.229716
vt 0.190858 0.422994
vt 0.192718 0.229716
vt 0.244402 0.430550
vt 0.244447 0.229716
vt 0.280002 0.431494
vt 0.289985 0.229716
vt 0.376742 0.390582
vt 0.348570 0.229716
vt 0.344541 0.407882
vt 0.382307 0.229716
vt 0.410606 0.377375
vt 0.413572 0.229716
vt 0.448746 0.361467
vt 0.449024 0.228447
vt 0.545481 0.456272
vt 0.498121 0.457487
vt 0.020789 0.456272
vt 0.077147 0.514013
vt 0.114988 0.536168
vt 0.149878 0.553254
vt 0.195212 0.570391
vt 0.245131 0.578197
vt 0.277198 0.575349
vt 0.313020 0.566654
vt 0.315116 0.419216
vt 0.342428 0.556532
vt 0.373144 0.537825
vt 0.407782 0.512384
vt 0.449223 0.480737
vt 0.410471 0.109547
vt 0.449998 0.045204
vt 0.390220 0.055036
vt 0.451865 0.109547
vt 0.496998 0.034292
vt 0.496454 0.109547
vt 0.372954 0.109547
vt 0.537295 0.109547
vt 0.308906 0.109547
vt 0.242644 0.109547
vt 0.315534 0.229716
vt 0.012827 0.012809
vt 0.053962 0.069247
vt 0.048127 0.007108
vt 0.057617 0.109547
vt 0.012603 0.109547
vt 0.537519 0.012809
vt 0.320294 0.045401
vt 0.194210 0.007846
vt 0.191096 0.109547
vt 0.257924 0.031961
vt 0.109793 0.109547
vt 0.148852 0.109547
vt 0.545057 0.458113
vt 0.498376 0.458342
vt 0.449508 0.481829
vt 0.407418 0.512415
vt 0.373586 0.538806
vt 0.344117 0.555876
vt 0.313917 0.565931
vt 0.276846 0.575669
vt 0.244975 0.578989
vt 0.191654 0.570865
vt 0.148740 0.554604
vt 0.114866 0.537910
vt 0.077115 0.515525
vt 0.020364 0.458113
vt 0.151871 0.018207
vn 0.8826 -0.4305 -0.1892
vn 0.9749 0.1894 -0.1173
vn 0.9754 0.1540 -0.1578
vn 0.9283 -0.3566 -0.1049
vn 0.4897 -0.8540 -0.1759
vn 0.8826 -0.4305 -0.1891
vn 0.5717 -0.8127 -0.1124
vn 0.0362 -0.9821 -0.1848
vn 0.0927 -0.9860 -0.1390
vn -0.4498 -0.8772 -0.1680
vn -0.4346 -0.8864 -0.1592
vn -0.8219 -0.5481 -0.1548
vn -0.8320 -0.5266 -0.1745
vn -0.9894 -0.0200 -0.1438
vn -0.9798 -0.1029 -0.1714
vn -0.9441 0.3155 -0.0960
vn -0.9541 0.2609 -0.1470
vn -0.0176 0.9892 -0.1458
vn -0.3702 0.9089 -0.1922
vn -0.4920 0.8641 -0.1061
vn 0.0325 0.9826 -0.1831
vn 0.3735 0.9168 -0.1414
vn 0.3658 0.9154 -0.1683
vn 0.7736 0.6150 -0.1528
vn 0.7682 0.6226 -0.1493
vn 0.8603 -0.3078 0.4064
vn 0.8365 0.0848 0.5413
vn 0.5733 -0.6325 0.5208
vn 0.1635 -0.8473 0.5052
vn -0.3107 -0.7874 0.5324
vn -0.6572 -0.4681 0.5907
vn -0.8024 0.0071 0.5967
vn -0.6708 0.3708 0.6423
vn -0.5240 0.5118 0.6808
vn -0.8240 0.5626 -0.0669
vn -0.3330 0.6536 0.6797
vn 0.0479 0.8382 0.5432
vn 0.4716 0.6414 0.6051
vn 0.7409 0.4385 0.5087
vn 0.3051 0.9297 -0.2064
vn 0.6642 0.7473 0.0203
vn 0.0236 0.9993 -0.0275
vn 0.7399 0.6554 -0.1513
vn 0.9621 0.1902 0.1953
vn 0.9735 0.2084 -0.0943
vn -0.1886 0.9536 -0.2346
vn 0.9318 -0.3365 -0.1359
vn -0.7923 0.5711 -0.2148
vn -0.9884 -0.0997 -0.1145
vn -0.7762 0.6104 -0.1579
vn 0.6034 -0.7503 0.2700
vn 0.6202 -0.7826 -0.0546
vn 0.6940 -0.7166 0.0703
vn 0.5555 -0.8232 -0.1172
vn -0.6826 0.7306 -0.0153
vn -0.4486 -0.7074 0.5462
vn -0.8605 -0.4945 -0.1229
vn -0.9814 0.0669 0.1799
vn 0.0623 -0.9927 -0.1033
vn -0.4950 -0.8627 -0.1033
vn 0.6859 -0.0650 0.7247
vn 0.7103 0.0260 0.7034
vn 0.6791 0.2389 0.6940
vn 0.4892 0.5361 0.6880
vn 0.2260 0.6421 0.7325
vn -0.2386 0.6200 0.7474
vn -0.4334 0.4929 0.7545
vn -0.5806 0.3357 0.7418
vn -0.6302 -0.0277 0.7759
vn -0.5311 -0.4251 0.7329
vn -0.1669 -0.6675 0.7256
vn 0.2581 -0.6860 0.6803
vn 0.6123 -0.5190 0.5964
vn -0.5815 -0.8110 0.0639
usemtl Material.002
s 1
f 1/1/1 2/2/2 3/3/3
f 2/2/2 1/1/1 4/4/4
f 5/5/5 6/6/4 7/7/6
f 6/6/4 5/5/5 8/8/7
f 9/9/8 8/8/7 5/5/5
f 8/8/7 9/9/8 10/10/9
f 11/11/10 10/10/9 9/9/8
f 10/10/9 11/11/10 12/12/11
f 13/13/12 12/12/11 11/11/10
f 12/12/11 13/13/12 14/14/13
f 15/15/14 14/14/13 13/13/12
f 14/14/13 15/15/14 16/16/15
f 17/17/16 16/16/15 15/15/14
f 16/16/15 17/17/16 18/18/17
f 19/19/18 20/20/19 21/21/20
f 20/20/19 19/19/18 22/22/21
f 23/23/22 22/22/21 19/19/18
f 22/22/21 23/23/22 24/24/23
f 25/25/24 24/24/23 23/23/22
f 24/24/23 25/25/24 26/26/25
f 3/3/3 26/26/25 25/25/24
f 26/26/25 3/3/3 2/2/2
f 27/27/26 3/3/3 28/28/27
f 3/3/3 27/27/26 1/1/1
f 29/29/26 5/5/5 7/7/6
f 5/5/5 29/29/26 30/30/28
f 31/31/29 5/5/5 30/30/28
f 5/5/5 31/31/29 9/9/8
f 32/32/30 9/9/8 31/31/29
f 9/9/8 32/32/30 11/11/10
f 33/33/31 11/11/10 32/32/30
f 11/11/10 33/33/31 13/13/12
f 34/34/32 13/13/12 33/33/31
f 13/13/12 34/34/32 15/15/14
f 35/35/33 15/15/14 34/34/32
f 15/15/14 35/35/33 17/17/16
f 36/36/34 17/17/16 35/35/33
f 17/17/16 36/36/34 37/37/35
f 38/38/36 37/37/35 36/36/34
f 37/37/35 38/38/36 21/21/20
f 39/39/37 21/21/20 38/38/36
f 21/21/20 39/39/37 19/19/18
f 40/40/38 19/19/18 39/39/37
f 19/19/18 40/40/38 23/23/22
f 41/41/39 23/23/22 40/40/38
f 23/23/22 41/41/39 25/25/24
f 28/28/27 25/25/24 41/41/39
f 25/25/24 28/28/27 3/3/3
f 42/42/40 43/43/41 44/44/42
f 43/43/41 42/42/40 45/45/43
f 45/45/43 46/46/44 43/43/41
f 46/46/44 45/45/43 47/47/45
f 42/42/40 44/44/42 48/48/46
f 4/4/4 47/47/45 2/2/2
f 47/47/45 4/4/4 49/49/47
f 20/20/19 22/22/21 48/48/46
f 50/50/48 16/16/15 18/18/17
f 16/16/15 50/50/48 51/51/49
f 24/24/23 48/48/46 22/22/21
f 48/48/46 24/24/23 42/42/40
f 20/20/19 50/50/48 52/52/50
f 50/50/48 20/20/19 48/48/46
f 52/52/50 50/50/48 18/18/17
f 53/53/51 54/54/52 55/55/53
f 53/53/51 56/56/54 54/54/52
f 53/53/51 57/57/47 56/56/54
f 47/47/45 58/58/51 46/46/44
f 58/58/51 47/47/45 49/49/47
f 8/8/7 57/57/47 6/6/4
f 57/57/47 8/8/7 56/56/54
f 52/52/50 21/21/20 20/20/19
f 21/21/20 52/52/50 37/37/35
f 18/18/17 37/37/35 52/52/50
f 37/37/35 18/18/17 17/17/16
f 48/48/46 59/59/55 50/50/48
f 59/59/55 48/48/46 44/44/42
f 42/42/40 26/26/25 45/45/43
f 26/26/25 42/42/40 24/24/23
f 45/45/43 2/2/2 47/47/45
f 2/2/2 45/45/43 26/26/25
f 51/51/49 60/60/56 61/61/57
f 60/60/56 51/51/49 62/62/58
f 10/10/9 56/56/54 8/8/7
f 56/56/54 10/10/9 63/63/59
f 12/12/11 63/63/59 10/10/9
f 63/63/59 12/12/11 64/64/60
f 14/14/13 64/64/60 12/12/11
f 64/64/60 14/14/13 61/61/57
f 51/51/49 61/61/57 14/14/13
f 14/14/13 16/16/15 51/51/49
f 62/62/58 50/50/48 59/59/55
f 50/50/48 62/62/58 51/51/49
f 28/28/27 65/65/61 27/27/26
f 65/65/61 28/28/27 66/66/62
f 41/41/39 66/66/62 28/28/27
f 66/66/62 41/41/39 67/67/63
f 40/40/38 67/67/63 41/41/39
f 67/67/63 40/40/38 68/68/64
f 39/39/37 68/68/64 40/40/38
f 68/68/64 39/39/37 69/69/65
f 38/38/36 69/69/65 39/39/37
f 69/69/65 38/38/36 70/70/66
f 36/36/34 70/70/66 38/38/36
f 70/70/66 36/36/34 71/71/67
f 35/35/33 71/71/67 36/36/34
f 71/71/67 35/35/33 72/72/68
f 34/34/32 72/72/68 35/35/33
f 72/72/68 34/34/32 73/73/69
f 33/33/31 73/73/69 34/34/32
f 73/73/69 33/33/31 74/74/70
f 32/32/30 74/74/70 33/33/31
f 74/74/70 32/32/30 75/75/71
f 31/31/29 75/75/71 32/32/30
f 75/75/71 31/31/29 76/76/72
f 30/30/28 76/76/72 31/31/29
f 76/76/72 30/30/28 77/77/73
f 29/29/26 77/77/73 30/30/28
f 77/77/73 29/29/26 78/78/61
f 60/60/56 64/64/60 61/61/57
f 64/64/60 60/60/56 79/79/74
o LowerBody.004
v 1.933917 -2.598502 48.979420
v 1.692230 0.692290 48.708298
v 2.223048 0.825377 44.699585
v 2.255098 -2.153467 44.699585
v 4.306586 -5.082787 50.083195
v 1.933917 -2.598502 48.979420
v 2.255098 -2.153467 44.699585
v 4.031524 -4.194970 44.699585
v 7.211349 -6.088221 50.564728
v 6.793631 -5.218487 44.699585
v 9.755181 -5.564120 50.816692
v 8.957868 -4.848752 44.699585
v 11.772534 -3.890279 50.816692
v 10.857236 -2.999280 44.699585
v 12.827730 -0.432292 50.816692
v 11.858207 -0.386569 44.699585
v 12.232256 1.816866 50.816692
v 11.508361 2.147885 44.699585
v 7.518432 6.067200 50.564728
v 9.755184 5.543097 50.816692
v 9.260132 4.832076 44.699585
v 7.156213 5.055581 44.699585
v 5.079501 5.543099 50.083195
v 5.181203 4.748789 44.699585
v 2.902154 3.827326 49.193279
v 3.297138 3.442519 44.653305
v 1.005929 -3.077294 52.959778
v 0.917034 0.728810 53.004074
v 1.005929 -3.077294 52.959778
v 4.304338 -6.256487 55.065018
v 7.161407 -7.272417 55.872768
v 9.933331 -6.711362 56.495731
v 12.589525 -4.117110 57.120544
v 13.689145 -0.414370 57.405170
v 12.914536 1.875314 57.301323
v 11.548368 4.057714 56.984306
v 11.331685 4.050579 50.816692
v 9.978997 5.649184 56.615261
v 7.847865 6.900773 55.933186
v 5.104863 6.106671 55.005623
v 2.228426 4.388412 53.851776
v 5.666141 4.052226 40.318226
v 6.813055 3.755170 38.330780
v 4.167768 2.587444 37.972286
v 3.774917 2.795764 40.318226
v 2.782799 0.524389 37.574440
v 2.685744 0.570786 40.318226
v 7.656146 4.161301 40.318226
v 2.673172 -1.779238 40.318226
v 10.477677 2.686436 40.318226
v 10.936529 -0.425405 40.318226
v 10.877931 3.611765 44.699585
v 3.205481 -1.608464 36.791164
v 4.249689 -3.385372 36.525417
v 4.311141 -3.598706 38.825829
v 4.348733 -3.729207 40.318226
v 2.673172 -1.779238 40.318226
v 3.205481 -1.608464 36.791164
v 9.698955 2.602945 37.979462
v 10.250240 -2.614257 40.318226
v 10.076888 -2.301237 36.610210
v 10.896556 0.243578 37.489468
v 6.942768 -4.526862 40.318226
v 8.850431 -4.166434 40.318226
v 1.441411 -2.840975 53.026924
v 1.408090 0.639970 53.035248
v 2.583630 4.038777 53.891594
v 5.295160 5.644301 55.006756
v 7.734829 6.415034 55.968975
v 9.666813 5.259353 56.591328
v 11.155551 3.749496 56.957928
v 12.453884 1.681244 57.312988
v 13.022792 -0.401310 57.434025
v 11.842456 -3.875104 57.137829
v 9.666810 -6.291191 56.544952
v 7.161614 -6.776471 55.936314
v 4.522243 -5.809858 55.120159
v 1.441411 -2.840975 53.026924
v 8.921916 -4.075408 36.960964
vt 0.544808 0.365991
vt 0.497047 0.359499
vt 0.493637 0.229716
vt 0.540620 0.229716
vt 0.069679 0.377375
vt 0.020116 0.347101
vt 0.015928 0.229716
vt 0.058490 0.229716
vt 0.115873 0.390582
vt 0.108298 0.229716
vt 0.153568 0.406937
vt 0.146394 0.229716
vt 0.190858 0.422994
vt 0.192718 0.229716
vt 0.244402 0.430550
vt 0.244447 0.229716
vt 0.280002 0.431494
vt 0.289985 0.229716
vt 0.376742 0.390582
vt 0.344541 0.407882
vt 0.348570 0.229716
vt 0.382307 0.229716
vt 0.410606 0.377375
vt 0.413572 0.229716
vt 0.448746 0.361467
vt 0.449024 0.228447
vt 0.545481 0.456272
vt 0.498121 0.457487
vt 0.020789 0.456272
vt 0.077147 0.514013
vt 0.114988 0.536168
vt 0.149878 0.553254
vt 0.195212 0.570391
vt 0.245131 0.578197
vt 0.277198 0.575349
vt 0.313020 0.566654
vt 0.315116 0.419216
vt 0.342428 0.556532
vt 0.373144 0.537825
vt 0.407782 0.512384
vt 0.449223 0.480737
vt 0.410471 0.109547
vt 0.390220 0.055036
vt 0.449998 0.045204
vt 0.451865 0.109547
vt 0.496998 0.034292
vt 0.496454 0.109547
vt 0.372954 0.109547
vt 0.537295 0.109547
vt 0.308906 0.109547
vt 0.242644 0.109547
vt 0.315534 0.229716
vt 0.012827 0.012809
vt 0.048127 0.007108
vt 0.053962 0.069247
vt 0.057617 0.109547
vt 0.012603 0.109547
vt 0.537519 0.012809
vt 0.320294 0.045401
vt 0.191096 0.109547
vt 0.194210 0.007846
vt 0.257924 0.031961
vt 0.109793 0.109547
vt 0.148852 0.109547
vt 0.545057 0.458113
vt 0.498376 0.458342
vt 0.449508 0.481829
vt 0.407418 0.512415
vt 0.373586 0.538806
vt 0.344117 0.555876
vt 0.313917 0.565931
vt 0.276846 0.575669
vt 0.244975 0.578989
vt 0.191654 0.570865
vt 0.148740 0.554604
vt 0.114866 0.537910
vt 0.077115 0.515525
vt 0.020364 0.458113
vt 0.151871 0.018207
vn -0.8826 -0.4305 -0.1891
vn -0.9754 0.1540 -0.1578
vn -0.9749 0.1894 -0.1173
vn -0.9283 -0.3566 -0.1049
vn -0.4897 -0.8540 -0.1759
vn -0.5717 -0.8127 -0.1124
vn -0.0362 -0.9821 -0.1848
vn -0.0927 -0.9860 -0.1390
vn 0.4498 -0.8772 -0.1680
vn 0.4346 -0.8864 -0.1592
vn 0.8219 -0.5481 -0.1548
vn 0.8320 -0.5266 -0.1745
vn 0.9894 -0.0200 -0.1438
vn 0.9798 -0.1029 -0.1714
vn 0.9441 0.3155 -0.0960
vn 0.9541 0.2609 -0.1470
vn 0.0176 0.9892 -0.1458
vn 0.4920 0.8641 -0.1061
vn 0.3702 0.9089 -0.1922
vn -0.0325 0.9826 -0.1831
vn -0.3735 0.9168 -0.1414
vn -0.3658 0.9154 -0.1683
vn -0.7736 0.6150 -0.1528
vn -0.7682 0.6226 -0.1493
vn -0.8603 -0.3078 0.4064
vn -0.8365 0.0848 0.5413
vn -0.5733 -0.6325 0.5208
vn -0.1635 -0.8473 0.5052
vn 0.3107 -0.7874 0.5324
vn 0.6572 -0.4681 0.5907
vn 0.8024 0.0071 0.5967
vn 0.6708 0.3708 0.6423
vn 0.5240 0.5118 0.6808
vn 0.8240 0.5626 -0.0669
vn 0.3330 0.6536 0.6797
vn -0.0479 0.8382 0.5432
vn -0.4716 0.6414 0.6051
vn -0.7409 0.4385 0.5087
vn -0.3051 0.9297 -0.2064
vn -0.0236 0.9993 -0.0275
vn -0.6642 0.7473 0.0203
vn -0.7399 0.6554 -0.1513
vn -0.9621 0.1902 0.1953
vn -0.9735 0.2084 -0.0943
vn 0.1886 0.9536 -0.2346
vn -0.9318 -0.3365 -0.1359
vn 0.7923 0.5711 -0.2148
vn 0.9884 -0.0997 -0.1145
vn 0.7762 0.6104 -0.1579
vn -0.6034 -0.7503 0.2700
vn -0.6940 -0.7166 0.0703
vn -0.6202 -0.7826 -0.0547
vn -0.5555 -0.8232 -0.1172
vn 0.6826 0.7306 -0.0153
vn 0.8605 -0.4945 -0.1229
vn 0.4486 -0.7074 0.5462
vn 0.9814 0.0669 0.1799
vn -0.0623 -0.9927 -0.1033
vn 0.4950 -0.8627 -0.1033
vn -0.6859 -0.0650 0.7247
vn -0.7103 0.0260 0.7034
vn -0.6791 0.2389 0.6940
vn -0.4892 0.5361 0.6880
vn -0.2260 0.6421 0.7325
vn 0.2386 0.6200 0.7474
vn 0.4334 0.4929 0.7545
vn 0.5806 0.3357 0.7418
vn 0.6302 -0.0277 0.7759
vn 0.5311 -0.4251 0.7329
vn 0.1669 -0.6675 0.7256
vn -0.2581 -0.6860 0.6803
vn -0.6123 -0.5190 0.5964
vn 0.5815 -0.8110 0.0640
usemtl Material.002
s 1
f 80/80/75 81/81/76 82/82/77
f 82/82/77 83/83/78 80/80/75
f 84/84/79 85/85/75 86/86/78
f 86/86/78 87/87/80 84/84/79
f 88/88/81 84/84/79 87/87/80
f 87/87/80 89/89/82 88/88/81
f 90/90/83 88/88/81 89/89/82
f 89/89/82 91/91/84 90/90/83
f 92/92/85 90/90/83 91/91/84
f 91/91/84 93/93/86 92/92/85
f 94/94/87 92/92/85 93/93/86
f 93/93/86 95/95/88 94/94/87
f 96/96/89 94/94/87 95/95/88
f 95/95/88 97/97/90 96/96/89
f 98/98/91 99/99/92 100/100/93
f 100/100/93 101/101/94 98/98/91
f 102/102/95 98/98/91 101/101/94
f 101/101/94 103/103/96 102/102/95
f 104/104/97 102/102/95 103/103/96
f 103/103/96 105/105/98 104/104/97
f 81/81/76 104/104/97 105/105/98
f 105/105/98 82/82/77 81/81/76
f 106/106/99 107/107/100 81/81/76
f 81/81/76 80/80/75 106/106/99
f 108/108/99 85/85/75 84/84/79
f 84/84/79 109/109/101 108/108/99
f 110/110/102 109/109/101 84/84/79
f 84/84/79 88/88/81 110/110/102
f 111/111/103 110/110/102 88/88/81
f 88/88/81 90/90/83 111/111/103
f 112/112/104 111/111/103 90/90/83
f 90/90/83 92/92/85 112/112/104
f 113/113/105 112/112/104 92/92/85
f 92/92/85 94/94/87 113/113/105
f 114/114/106 113/113/105 94/94/87
f 94/94/87 96/96/89 114/114/106
f 115/115/107 114/114/106 96/96/89
f 96/96/89 116/116/108 115/115/107
f 117/117/109 115/115/107 116/116/108
f 116/116/108 99/99/92 117/117/109
f 118/118/110 117/117/109 99/99/92
f 99/99/92 98/98/91 118/118/110
f 119/119/111 118/118/110 98/98/91
f 98/98/91 102/102/95 119/119/111
f 120/120/112 119/119/111 102/102/95
f 102/102/95 104/104/97 120/120/112
f 107/107/100 120/120/112 104/104/97
f 104/104/97 81/81/76 107/107/100
f 121/121/113 122/122/114 123/123/115
f 123/123/115 124/124/116 121/121/113
f 124/124/116 123/123/115 125/125/117
f 125/125/117 126/126/118 124/124/116
f 121/121/113 127/127/119 122/122/114
f 83/83/78 82/82/77 126/126/118
f 126/126/118 128/128/120 83/83/78
f 100/100/93 127/127/119 101/101/94
f 129/129/121 97/97/90 95/95/88
f 95/95/88 130/130/122 129/129/121
f 103/103/96 101/101/94 127/127/119
f 127/127/119 121/121/113 103/103/96
f 100/100/93 131/131/123 129/129/121
f 129/129/121 127/127/119 100/100/93
f 131/131/123 97/97/90 129/129/121
f 132/132/124 133/133/125 134/134/126
f 132/132/124 134/134/126 135/135/127
f 132/132/124 135/135/127 136/136/120
f 126/126/118 125/125/117 137/137/124
f 137/137/124 128/128/120 126/126/118
f 87/87/80 86/86/78 136/136/120
f 136/136/120 135/135/127 87/87/80
f 131/131/123 100/100/93 99/99/92
f 99/99/92 116/116/108 131/131/123
f 97/97/90 131/131/123 116/116/108
f 116/116/108 96/96/89 97/97/90
f 127/127/119 129/129/121 138/138/128
f 138/138/128 122/122/114 127/127/119
f 121/121/113 124/124/116 105/105/98
f 105/105/98 103/103/96 121/121/113
f 124/124/116 126/126/118 82/82/77
f 82/82/77 105/105/98 124/124/116
f 130/130/122 139/139/129 140/140/130
f 140/140/130 141/141/131 130/130/122
f 89/89/82 87/87/80 135/135/127
f 135/135/127 142/142/132 89/89/82
f 91/91/84 89/89/82 142/142/132
f 142/142/132 143/143/133 91/91/84
f 93/93/86 91/91/84 143/143/133
f 143/143/133 139/139/129 93/93/86
f 130/130/122 93/93/86 139/139/129
f 93/93/86 130/130/122 95/95/88
f 141/141/131 138/138/128 129/129/121
f 129/129/121 130/130/122 141/141/131
f 107/107/100 106/106/99 144/144/134
f 144/144/134 145/145/135 107/107/100
f 120/120/112 107/107/100 145/145/135
f 145/145/135 146/146/136 120/120/112
f 119/119/111 120/120/112 146/146/136
f 146/146/136 147/147/137 119/119/111
f 118/118/110 119/119/111 147/147/137
f 147/147/137 148/148/138 118/118/110
f 117/117/109 118/118/110 148/148/138
f 148/148/138 149/149/139 117/117/109
f 115/115/107 117/117/109 149/149/139
f 149/149/139 150/150/140 115/115/107
f 114/114/106 115/115/107 150/150/140
f 150/150/140 151/151/141 114/114/106
f 113/113/105 114/114/106 151/151/141
f 151/151/141 152/152/142 113/113/105
f 112/112/104 113/113/105 152/152/142
f 152/152/142 153/153/143 112/112/104
f 111/111/103 112/112/104 153/153/143
f 153/153/143 154/154/144 111/111/103
f 110/110/102 111/111/103 154/154/144
f 154/154/144 155/155/145 110/110/102
f 109/109/101 110/110/102 155/155/145
f 155/155/145 156/156/146 109/109/101
f 108/108/99 109/109/101 156/156/146
f 156/156/146 157/157/134 108/108/99
f 140/140/130 139/139/129 143/143/133
f 143/143/133 158/158/147 140/140/130
