# Blender v2.79 (sub 0) OBJ File: ''
# www.blender.org
mtllib shin.mtl
o LowerBody.008
v -4.136256 1.301369 30.577295
v -7.004219 2.120431 29.364492
v -6.933099 3.204619 30.543915
v -4.717846 0.429546 29.397226
v -3.230103 -1.747212 30.120865
v -4.017354 3.145789 32.880081
v -6.933099 4.723375 32.797829
v -2.242852 0.387126 33.043156
v -2.572912 -0.293431 31.440195
v -2.715638 -1.770616 33.925442
v -3.965482 3.423674 34.551468
v -6.933099 4.888986 34.555042
v -2.143824 0.747937 34.350956
v -4.044682 3.141119 36.243542
v -6.933099 4.381255 36.336578
v -2.236726 0.701760 36.368202
v -2.740034 -1.790796 36.801853
v -4.167768 2.587444 37.972286
v -6.813055 3.755170 38.330780
v -2.782799 0.524389 37.574440
v -9.653187 1.775826 30.707537
v -9.333645 0.447485 29.410736
v -11.226221 -0.822560 31.313910
v -10.721707 -1.574339 29.856810
v -10.690105 -3.603892 31.087984
v -9.848845 3.145789 32.880081
v -11.662340 0.202214 33.170616
v -11.045799 -2.842187 33.824921
v -9.900716 3.423674 34.551468
v -11.720396 0.540957 34.463448
v -9.821516 3.141120 36.243542
v -11.465335 0.542616 36.283234
v -10.539184 -2.487376 36.650642
v -9.698955 2.602945 37.979462
v -10.896556 0.243578 37.489468
v -3.181085 -1.588284 33.914753
v -3.205481 -1.608464 36.791164
v -10.227810 -3.417753 31.047554
v -10.076888 -2.301237 36.610210
v -4.156487 0.732491 26.502680
v -7.014938 1.288336 22.176527
v -7.029237 1.595056 26.097092
v -9.581210 0.745724 26.504391
v -3.708668 0.684533 29.244949
v -2.146296 -1.255424 29.614529
v -7.003618 1.935634 28.137060
v -9.861891 0.689237 29.233727
v -11.625735 -1.235834 29.603252
v -7.008096 0.791450 22.231815
v -4.432664 0.320939 26.568644
v -9.312954 0.326969 26.556190
v -2.533256 -1.565510 29.678631
v -11.236590 -1.545437 29.655336
v -10.583504 -2.656048 33.784489
v -10.785222 -4.689095 30.319681
v -10.978990 -4.507160 32.160381
v -11.172759 -4.325225 34.001087
v -11.291473 -4.683469 30.376608
v -11.678981 -4.319205 34.061989
v -11.485227 -4.501337 32.219299
v -11.291473 -4.683469 30.376608
v -11.128736 -3.943380 37.864349
v -11.403858 -4.131293 35.963165
v -10.539184 -2.487376 36.650642
v -10.622484 -3.949007 37.807419
v -11.128736 -3.943380 37.864349
v -10.897621 -4.137115 35.904255
v -12.322018 -8.222173 31.760973
v -12.672727 -6.422481 28.438070
v -12.104548 -6.428107 28.358051
v -12.890182 -8.216350 31.846979
v -12.957295 -8.741578 34.632053
v -12.389149 -8.747598 34.571152
v -12.230696 -7.961459 37.581772
v -12.798860 -7.955637 37.667770
v -12.490081 -5.681955 39.982059
v -11.921904 -5.687582 39.902031
v -12.890182 -8.216350 31.846979
v -12.672727 -6.422481 28.438070
v -12.957295 -8.741578 34.632053
v -12.798860 -7.955637 37.667770
v -12.490081 -5.681955 39.982059
vt 0.668968 0.364994
vt 0.692638 0.423225
vt 0.708015 0.406356
vt 0.648105 0.376200
vt 0.621422 0.328449
vt 0.712704 0.346258
vt 0.739326 0.376114
vt 0.684253 0.312262
vt 0.656284 0.327868
vt 0.674849 0.277994
vt 0.736879 0.324823
vt 0.763739 0.352538
vt 0.705241 0.297635
vt 0.759614 0.301320
vt 0.788492 0.328636
vt 0.733196 0.270497
vt 0.714553 0.239135
vt 0.781588 0.276010
vt 0.815061 0.300704
vt 0.750384 0.254758
vt 0.745072 0.440180
vt 0.737790 0.468695
vt 0.788391 0.468180
vt 0.776641 0.497029
vt 0.816864 0.518703
vt 0.768233 0.403761
vt 0.804766 0.433514
vt 0.855797 0.467978
vt 0.790499 0.380348
vt 0.819883 0.413223
vt 0.814782 0.358447
vt 0.844305 0.387916
vt 0.894885 0.421890
vt 0.840857 0.337185
vt 0.861894 0.372592
vt 0.667905 0.271101
vt 0.708994 0.233675
vt 0.816460 0.517095
vt 0.894735 0.421392
vt 0.606647 0.413746
vt 0.593316 0.520224
vt 0.647854 0.467695
vt 0.695904 0.506127
vt 0.641022 0.373098
vt 0.620732 0.341812
vt 0.675636 0.439746
vt 0.736681 0.472468
vt 0.769109 0.495775
vt 0.583307 0.530345
vt 0.597112 0.417184
vt 0.692018 0.515808
vt 0.618272 0.337483
vt 0.773236 0.498600
vt 0.855597 0.467411
vt 0.849311 0.549962
vt 0.870637 0.528569
vt 0.891964 0.507176
vt 0.847544 0.551895
vt 0.892670 0.506468
vt 0.871320 0.527884
vt 0.849970 0.549301
vt 0.936724 0.462276
vt 0.914697 0.484372
vt 0.895555 0.420732
vt 0.936065 0.462938
vt 0.938166 0.460423
vt 0.914015 0.485057
vt 0.921943 0.615251
vt 0.861325 0.609901
vt 0.863034 0.607674
vt 0.922987 0.617920
vt 0.972339 0.589577
vt 0.971062 0.588761
vt 0.996496 0.550834
vt 0.998982 0.550832
vt 0.998001 0.487688
vt 0.995077 0.490103
vt 0.922987 0.614322
vt 0.864002 0.606805
vt 0.971768 0.588053
vt 0.997540 0.549905
vt 0.996045 0.489233
vn 0.6275 0.6321 -0.4547
vn 0.0371 0.9230 -0.3831
vn 0.0234 0.7843 -0.6199
vn 0.6275 0.6320 -0.4547
vn 0.7017 0.5820 -0.4111
vn 0.9888 0.0059 -0.1491
vn 0.6400 0.6946 -0.3285
vn 0.0000 0.9440 -0.3298
vn 0.9647 0.1641 -0.2062
vn 0.9241 0.2253 -0.3086
vn 0.4839 -0.8749 -0.0207
vn 0.6462 0.7631 0.0071
vn 0.0000 0.9972 0.0745
vn 0.9760 0.2138 -0.0407
vn 0.6161 0.7518 0.2349
vn -0.0017 0.9568 0.2908
vn 0.9463 0.2241 0.2330
vn 0.3960 -0.7795 0.4853
vn 0.6642 0.7473 0.0203
vn 0.0236 0.9993 -0.0275
vn 0.9621 0.1902 0.1953
vn -0.5968 0.6108 -0.5204
vn -0.7151 0.6134 -0.3351
vn -0.9510 0.1688 -0.2590
vn -0.9738 0.1498 -0.1709
vn -0.7629 0.2927 -0.5765
vn -0.6521 0.6942 -0.3048
vn -0.9688 0.1600 -0.1894
vn -0.9965 0.0830 -0.0100
vn -0.6639 0.7477 0.0120
vn -0.9823 0.1845 0.0334
vn -0.6501 0.7233 0.2328
vn -0.9451 0.1583 0.2858
vn -0.6912 0.2672 0.6715
vn -0.6826 0.7306 -0.0153
vn -0.9814 0.0669 0.1798
vn 0.3721 -0.9269 0.0494
vn 0.6035 -0.7503 0.2700
vn -0.5021 -0.8307 -0.2405
vn -0.4486 -0.7074 0.5462
vn 0.7903 0.4012 -0.4631
vn -0.0388 0.5184 -0.8542
vn -0.0186 0.9958 -0.0894
vn -0.7997 0.4063 -0.4421
vn 0.6325 0.7608 -0.1453
vn 0.9507 -0.2674 -0.1569
vn -0.0063 0.9801 -0.1986
vn -0.6084 0.7726 -0.1817
vn -0.9510 0.1687 -0.2590
vn -0.9643 -0.1916 -0.1827
vn -0.0423 -0.1372 -0.9896
vn 0.6256 -0.5222 -0.5796
vn -0.6488 -0.4827 -0.5882
vn 0.6025 -0.7834 -0.1526
vn -0.5899 -0.7779 -0.2165
vn 0.2399 -0.9544 0.1778
vn 0.7852 -0.0528 -0.6170
vn 0.9275 -0.3612 0.0964
vn 0.9478 -0.3187 -0.0062
vn -0.5931 0.6792 -0.4323
vn -0.9340 0.3545 -0.0446
vn -0.8892 0.4414 -0.1205
vn -0.5932 0.6792 -0.4323
vn -0.4261 0.7713 0.4728
vn -0.9105 0.4091 0.0603
vn -0.6914 0.2677 0.6711
vn 0.8219 0.1779 0.5412
vn 0.9331 -0.3493 -0.0858
vn 0.5344 -0.8060 -0.2546
vn -0.7092 -0.0053 -0.7050
vn 0.4170 -0.1341 -0.8990
vn -0.8135 -0.5309 -0.2373
vn -0.7637 -0.6448 0.0306
vn 0.5470 -0.8371 0.0053
vn 0.5535 -0.7558 0.3498
vn -0.7211 -0.5614 0.4061
vn -0.5851 0.0990 0.8049
vn 0.5106 -0.0430 0.8587
vn -0.7093 -0.0053 -0.7049
vn -0.7638 -0.6448 0.0306
vn -0.7211 -0.5614 0.4060
vn -0.5851 0.0989 0.8049
usemtl Material.002
s 1
f 1/1/1 2/2/2 3/3/3
f 2/2/2 1/1/4 4/4/5
f 4/4/5 1/1/4 5/5/6
f 6/6/7 3/3/3 7/7/8
f 3/3/3 6/6/7 1/1/1
f 8/8/9 1/1/1 6/6/7
f 1/1/1 8/8/9 9/9/10
f 10/10/11 9/9/10 8/8/9
f 9/9/10 10/10/11 5/5/6
f 11/11/12 7/7/8 12/12/13
f 7/7/8 11/11/12 6/6/7
f 13/13/14 6/6/7 11/11/12
f 6/6/7 13/13/14 8/8/9
f 8/8/9 13/13/14 10/10/11
f 14/14/15 12/12/13 15/15/16
f 12/12/13 14/14/15 11/11/12
f 16/16/17 11/11/12 14/14/15
f 11/11/12 16/16/17 13/13/14
f 17/17/18 13/13/14 16/16/17
f 13/13/14 17/17/18 10/10/11
f 18/18/19 15/15/16 19/19/20
f 15/15/16 18/18/19 14/14/15
f 20/20/21 14/14/15 18/18/19
f 14/14/15 20/20/21 16/16/17
f 16/16/17 20/20/21 17/17/18
f 2/2/2 21/21/22 3/3/3
f 21/21/22 2/2/2 22/22/23
f 22/22/23 23/23/24 21/21/22
f 23/23/24 22/22/23 24/24/25
f 24/24/25 25/25/26 23/23/24
f 3/3/3 26/26/27 7/7/8
f 26/26/27 3/3/3 21/21/22
f 21/21/22 27/27/28 26/26/27
f 27/27/28 21/21/22 23/23/24
f 23/23/24 28/28/29 27/27/28
f 28/28/29 23/23/24 25/25/26
f 7/7/8 29/29/30 12/12/13
f 29/29/30 7/7/8 26/26/27
f 26/26/27 30/30/31 29/29/30
f 30/30/31 26/26/27 27/27/28
f 27/27/28 28/28/29 30/30/31
f 12/12/13 31/31/32 15/15/16
f 31/31/32 12/12/13 29/29/30
f 29/29/30 32/32/33 31/31/32
f 32/32/33 29/29/30 30/30/31
f 30/30/31 33/33/34 32/32/33
f 33/33/34 30/30/31 28/28/29
f 15/15/16 34/34/35 19/19/20
f 34/34/35 15/15/16 31/31/32
f 31/31/32 35/35/36 34/34/35
f 35/35/36 31/31/32 32/32/33
f 32/32/33 33/33/34 35/35/36
f 1/1/4 9/9/10 5/5/6
f 17/17/18 36/36/37 10/10/11
f 36/36/37 17/17/18 37/37/38
f 37/37/38 17/17/18 20/20/21
f 5/5/6 10/10/11 36/36/37
f 38/38/39 25/25/26 24/24/25
f 35/35/36 33/33/34 39/39/40
f 40/40/41 41/41/42 42/42/43
f 41/41/42 43/43/44 42/42/43
f 44/44/45 9/9/10 45/45/46
f 9/9/10 44/44/45 1/1/1
f 46/46/47 1/1/1 44/44/45
f 1/1/1 46/46/47 2/2/2
f 21/21/22 46/46/47 47/47/48
f 46/46/47 21/21/22 2/2/2
f 23/23/49 47/47/48 48/48/50
f 45/45/46 40/40/41 44/44/45
f 44/44/45 42/42/43 46/46/47
f 42/42/43 44/44/45 40/40/41
f 42/42/43 47/47/48 46/46/47
f 47/47/48 42/42/43 43/43/44
f 47/47/48 43/43/44 48/48/50
f 40/40/41 49/49/51 41/41/42
f 49/49/51 40/40/41 50/50/52
f 51/51/53 41/41/42 49/49/51
f 41/41/42 51/51/53 43/43/44
f 45/45/46 9/9/10 52/52/54
f 23/23/49 48/48/50 53/53/55
f 50/50/52 45/45/46 52/52/54
f 45/45/46 50/50/52 40/40/41
f 51/51/53 48/48/50 43/43/44
f 48/48/50 51/51/53 53/53/55
f 54/54/56 55/55/57 38/38/39
f 54/54/56 56/56/58 55/55/57
f 54/54/56 57/57/59 56/56/58
f 38/38/39 58/58/60 25/25/26
f 58/58/60 38/38/39 55/55/57
f 25/25/26 59/59/61 28/28/29
f 25/25/26 60/60/62 59/59/61
f 25/25/26 61/61/63 60/60/62
f 28/28/29 62/62/64 33/33/34
f 28/28/29 63/63/65 62/62/64
f 28/28/29 59/59/61 63/63/65
f 64/64/66 65/65/67 39/39/40
f 65/65/67 64/64/66 66/66/64
f 39/39/40 57/57/59 54/54/56
f 39/39/40 67/67/68 57/57/59
f 39/39/40 65/65/67 67/67/68
f 68/68/69 69/69/70 70/70/71
f 69/69/70 68/68/69 71/71/72
f 72/72/73 68/68/69 73/73/74
f 68/68/69 72/72/73 71/71/72
f 74/74/75 72/72/73 73/73/74
f 72/72/73 74/74/75 75/75/76
f 76/76/77 74/74/75 77/77/78
f 74/74/75 76/76/77 75/75/76
f 57/57/59 68/68/69 56/56/58
f 68/68/69 57/57/59 73/73/74
f 56/56/58 70/70/71 55/55/57
f 70/70/71 56/56/58 68/68/69
f 55/55/57 69/69/70 58/58/60
f 69/69/70 55/55/57 70/70/71
f 61/61/63 78/78/72 60/60/62
f 78/78/72 61/61/63 79/79/79
f 60/60/62 80/80/80 59/59/61
f 80/80/80 60/60/62 78/78/72
f 59/59/61 81/81/81 63/63/65
f 81/81/81 59/59/61 80/80/80
f 63/63/65 82/82/82 62/62/64
f 82/82/82 63/63/65 81/81/81
f 66/66/64 77/77/78 65/65/67
f 77/77/78 66/66/64 76/76/77
f 65/65/67 74/74/75 67/67/68
f 74/74/75 65/65/67 77/77/78
f 67/67/68 73/73/74 57/57/59
f 73/73/74 67/67/68 74/74/75
o LowerBody.005
v 9.861891 0.689237 29.233727
v 9.653187 1.775826 30.707537
v 11.226221 -0.822560 31.313910
vt 0.736681 0.472468
vt 0.745072 0.440180
vt 0.788391 0.468180
vn 0.8561 0.4664 -0.2226
usemtl Material.002
s 1
f 83/83/83 84/84/83 85/85/83
o LowerBody.003
v 4.136256 1.301369 30.577295
v 6.933099 3.204619 30.543915
v 7.004219 2.120431 29.364492
v 4.717846 0.429546 29.397226
v 3.230103 -1.747212 30.120865
v 4.017354 3.145789 32.880081
v 6.933099 4.723375 32.797829
v 2.242852 0.387126 33.043156
v 2.572912 -0.293431 31.440195
v 2.715638 -1.770616 33.925442
v 3.965482 3.423674 34.551468
v 6.933099 4.888986 34.555042
v 2.143824 0.747937 34.350956
v 4.044682 3.141119 36.243542
v 6.933099 4.381255 36.336578
v 2.236726 0.701760 36.368202
v 2.740034 -1.790796 36.801853
v 4.167768 2.587444 37.972286
v 6.813055 3.755170 38.330780
v 2.782799 0.524389 37.574440
v 9.653187 1.775826 30.707537
v 9.333645 0.447485 29.410736
v 11.226221 -0.822560 31.313910
v 10.721707 -1.574339 29.856810
v 10.690105 -3.603892 31.087984
v 9.848845 3.145789 32.880081
v 11.662340 0.202214 33.170616
v 11.045799 -2.842187 33.824921
v 9.900716 3.423674 34.551468
v 11.720396 0.540957 34.463448
v 9.821516 3.141120 36.243542
v 11.465335 0.542616 36.283234
v 10.539184 -2.487376 36.650642
v 9.698955 2.602945 37.979462
v 10.896556 0.243578 37.489468
v 3.181085 -1.588284 33.914753
v 3.205481 -1.608464 36.791164
v 10.227810 -3.417753 31.047554
v 10.076888 -2.301237 36.610210
v 4.156487 0.732491 26.502680
v 7.029237 1.595056 26.097092
v 7.014938 1.288336 22.176527
v 9.581210 0.745724 26.504391
v 3.708668 0.684533 29.244949
v 2.146296 -1.255424 29.614529
v 7.003618 1.935634 28.137060
v 9.861891 0.689237 29.233727
v 11.625735 -1.235834 29.603252
v 7.008096 0.791450 22.231815
v 4.432664 0.320939 26.568644
v 9.312954 0.326969 26.556190
v 2.533256 -1.565510 29.678631
v 11.236590 -1.545437 29.655336
v 10.583504 -2.656048 33.784489
v 10.785221 -4.689095 30.319681
v 10.978990 -4.507160 32.160381
v 11.172758 -4.325225 34.001087
v 11.291472 -4.683469 30.376608
v 11.678981 -4.319205 34.061989
v 11.485226 -4.501337 32.219299
v 11.291472 -4.683469 30.376608
v 11.128735 -3.943380 37.864349
v 11.403857 -4.131293 35.963165
v 10.539184 -2.487376 36.650642
v 10.622483 -3.949007 37.807419
v 11.128735 -3.943380 37.864349
v 10.897620 -4.137115 35.904255
v 12.322017 -8.222173 31.760973
v 12.104546 -6.428107 28.358051
v 12.672726 -6.422481 28.438070
v 12.890181 -8.216350 31.846979
v 12.957294 -8.741578 34.632053
v 12.389149 -8.747598 34.571152
v 12.230695 -7.961459 37.581772
v 12.798859 -7.955637 37.667770
v 12.490079 -5.681955 39.982059
v 11.921902 -5.687582 39.902031
v 12.890181 -8.216350 31.846979
v 12.672726 -6.422481 28.438070
v 12.957294 -8.741578 34.632053
v 12.798859 -7.955637 37.667770
v 12.490079 -5.681955 39.982059
vt 0.668968 0.364994
vt 0.708015 0.406356
vt 0.692638 0.423225
vt 0.648105 0.376200
vt 0.621422 0.328449
vt 0.712704 0.346258
vt 0.739326 0.376114
vt 0.684253 0.312262
vt 0.656284 0.327868
vt 0.674849 0.277994
vt 0.736879 0.324823
vt 0.763739 0.352538
vt 0.705241 0.297635
vt 0.759614 0.301320
vt 0.788492 0.328636
vt 0.733196 0.270497
vt 0.714553 0.239135
vt 0.781588 0.276010
vt 0.815061 0.300704
vt 0.750384 0.254758
vt 0.745072 0.440180
vt 0.737790 0.468695
vt 0.788391 0.468180
vt 0.776641 0.497029
vt 0.816864 0.518703
vt 0.768233 0.403761
vt 0.804766 0.433514
vt 0.855797 0.467978
vt 0.790499 0.380348
vt 0.819883 0.413223
vt 0.814782 0.358447
vt 0.844305 0.387916
vt 0.894885 0.421890
vt 0.840857 0.337185
vt 0.861894 0.372592
vt 0.667905 0.271101
vt 0.708994 0.233675
vt 0.816460 0.517095
vt 0.894735 0.421392
vt 0.606647 0.413746
vt 0.647854 0.467695
vt 0.593316 0.520224
vt 0.695904 0.506127
vt 0.641022 0.373098
vt 0.620732 0.341812
vt 0.675636 0.439746
vt 0.736681 0.472468
vt 0.769109 0.495775
vt 0.583307 0.530345
vt 0.597112 0.417184
vt 0.692018 0.515808
vt 0.618272 0.337483
vt 0.773236 0.498600
vt 0.855597 0.467411
vt 0.849311 0.549962
vt 0.870637 0.528569
vt 0.891964 0.507176
vt 0.847544 0.551895
vt 0.892670 0.506468
vt 0.871320 0.527884
vt 0.849970 0.549301
vt 0.936724 0.462276
vt 0.914697 0.484372
vt 0.895555 0.420732
vt 0.936065 0.462938
vt 0.938166 0.460423
vt 0.914015 0.485057
vt 0.921943 0.615251
vt 0.863034 0.607674
vt 0.861325 0.609901
vt 0.922987 0.617920
vt 0.972339 0.589577
vt 0.971062 0.588761
vt 0.996496 0.550834
vt 0.998982 0.550832
vt 0.998001 0.487688
vt 0.995077 0.490103
vt 0.922987 0.614322
vt 0.864002 0.606805
vt 0.971768 0.588053
vt 0.997540 0.549905
vt 0.996045 0.489233
vn -0.6275 0.6321 -0.4547
vn -0.0234 0.7843 -0.6199
vn -0.0371 0.9230 -0.3831
vn -0.7017 0.5820 -0.4111
vn -0.6275 0.6320 -0.4547
vn -0.9888 0.0059 -0.1491
vn -0.6400 0.6946 -0.3285
vn -0.0000 0.9440 -0.3298
vn -0.9647 0.1641 -0.2062
vn -0.9241 0.2253 -0.3086
vn -0.4839 -0.8749 -0.0207
vn -0.6462 0.7631 0.0071
vn -0.0000 0.9972 0.0745
vn -0.9760 0.2138 -0.0407
vn -0.6161 0.7518 0.2349
vn 0.0017 0.9568 0.2908
vn -0.9463 0.2241 0.2330
vn -0.3960 -0.7795 0.4853
vn -0.6642 0.7473 0.0203
vn -0.0236 0.9993 -0.0275
vn -0.9621 0.1902 0.1953
vn 0.5968 0.6108 -0.5204
vn 0.7151 0.6134 -0.3351
vn 0.9510 0.1688 -0.2590
vn 0.9738 0.1498 -0.1709
vn 0.7629 0.2927 -0.5765
vn 0.6521 0.6942 -0.3048
vn 0.9688 0.1600 -0.1894
vn 0.9965 0.0830 -0.0100
vn 0.6639 0.7477 0.0120
vn 0.9823 0.1845 0.0334
vn 0.6501 0.7233 0.2328
vn 0.9451 0.1583 0.2858
vn 0.6914 0.2677 0.6710
vn 0.6826 0.7306 -0.0153
vn 0.9814 0.0669 0.1798
vn -0.3721 -0.9269 0.0494
vn -0.6035 -0.7503 0.2700
vn 0.5021 -0.8307 -0.2405
vn 0.4486 -0.7074 0.5462
vn -0.7903 0.4012 -0.4631
vn 0.0186 0.9958 -0.0894
vn 0.0388 0.5184 -0.8542
vn 0.7997 0.4063 -0.4421
vn -0.6325 0.7608 -0.1453
vn -0.9507 -0.2674 -0.1569
vn 0.0063 0.9801 -0.1986
vn 0.6084 0.7726 -0.1817
vn 0.9510 0.1687 -0.2590
vn 0.9643 -0.1916 -0.1827
vn 0.0423 -0.1372 -0.9896
vn -0.6256 -0.5222 -0.5796
vn 0.6488 -0.4827 -0.5882
vn -0.6025 -0.7834 -0.1526
vn 0.5899 -0.7779 -0.2165
vn -0.2399 -0.9544 0.1778
vn -0.7852 -0.0528 -0.6170
vn -0.9275 -0.3612 0.0964
vn -0.9478 -0.3187 -0.0062
vn 0.5931 0.6792 -0.4323
vn 0.9340 0.3545 -0.0446
vn 0.8892 0.4414 -0.1205
vn 0.5932 0.6792 -0.4323
vn 0.4261 0.7713 0.4728
vn 0.9105 0.4091 0.0603
vn 0.6914 0.2677 0.6711
vn -0.8219 0.1779 0.5412
vn -0.9331 -0.3493 -0.0858
vn -0.5344 -0.8060 -0.2546
vn -0.4170 -0.1341 -0.8990
vn 0.7092 -0.0053 -0.7050
vn 0.8135 -0.5309 -0.2373
vn 0.7637 -0.6448 0.0306
vn -0.5470 -0.8371 0.0053
vn -0.5535 -0.7558 0.3498
vn 0.7211 -0.5614 0.4061
vn 0.5851 0.0990 0.8049
vn -0.5106 -0.0430 0.8587
vn 0.7093 -0.0053 -0.7049
vn 0.7638 -0.6448 0.0305
vn 0.7211 -0.5614 0.4060
vn 0.5851 0.0989 0.8049
usemtl Material.002
s 1
f 86/86/84 87/87/85 88/88/86
f 88/88/86 89/89/87 86/86/88
f 89/89/87 90/90/89 86/86/88
f 91/91/90 92/92/91 87/87/85
f 87/87/85 86/86/84 91/91/90
f 93/93/92 91/91/90 86/86/84
f 86/86/84 94/94/93 93/93/92
f 95/95/94 93/93/92 94/94/93
f 94/94/93 90/90/89 95/95/94
f 96/96/95 97/97/96 92/92/91
f 92/92/91 91/91/90 96/96/95
f 98/98/97 96/96/95 91/91/90
f 91/91/90 93/93/92 98/98/97
f 93/93/92 95/95/94 98/98/97
f 99/99/98 100/100/99 97/97/96
f 97/97/96 96/96/95 99/99/98
f 101/101/100 99/99/98 96/96/95
f 96/96/95 98/98/97 101/101/100
f 102/102/101 101/101/100 98/98/97
f 98/98/97 95/95/94 102/102/101
f 103/103/102 104/104/103 100/100/99
f 100/100/99 99/99/98 103/103/102
f 105/105/104 103/103/102 99/99/98
f 99/99/98 101/101/100 105/105/104
f 101/101/100 102/102/101 105/105/104
f 88/88/86 87/87/85 106/106/105
f 106/106/105 107/107/106 88/88/86
f 107/107/106 106/106/105 108/108/107
f 108/108/107 109/109/108 107/107/106
f 109/109/108 108/108/107 110/110/109
f 87/87/85 92/92/91 111/111/110
f 111/111/110 106/106/105 87/87/85
f 106/106/105 111/111/110 112/112/111
f 112/112/111 108/108/107 106/106/105
f 108/108/107 112/112/111 113/113/112
f 113/113/112 110/110/109 108/108/107
f 92/92/91 97/97/96 114/114/113
f 114/114/113 111/111/110 92/92/91
f 111/111/110 114/114/113 115/115/114
f 115/115/114 112/112/111 111/111/110
f 112/112/111 115/115/114 113/113/112
f 97/97/96 100/100/99 116/116/115
f 116/116/115 114/114/113 97/97/96
f 114/114/113 116/116/115 117/117/116
f 117/117/116 115/115/114 114/114/113
f 115/115/114 117/117/116 118/118/117
f 118/118/117 113/113/112 115/115/114
f 100/100/99 104/104/103 119/119/118
f 119/119/118 116/116/115 100/100/99
f 116/116/115 119/119/118 120/120/119
f 120/120/119 117/117/116 116/116/115
f 117/117/116 120/120/119 118/118/117
f 86/86/88 90/90/89 94/94/93
f 102/102/101 95/95/94 121/121/120
f 121/121/120 122/122/121 102/102/101
f 122/122/121 105/105/104 102/102/101
f 90/90/89 121/121/120 95/95/94
f 123/123/122 109/109/108 110/110/109
f 120/120/119 124/124/123 118/118/117
f 125/125/124 126/126/125 127/127/126
f 127/127/126 126/126/125 128/128/127
f 129/129/128 130/130/129 94/94/93
f 94/94/93 86/86/84 129/129/128
f 131/131/130 129/129/128 86/86/84
f 86/86/84 88/88/86 131/131/130
f 106/106/105 132/132/131 131/131/130
f 131/131/130 88/88/86 106/106/105
f 108/108/132 133/133/133 132/132/131
f 130/130/129 129/129/128 125/125/124
f 129/129/128 131/131/130 126/126/125
f 126/126/125 125/125/124 129/129/128
f 126/126/125 131/131/130 132/132/131
f 132/132/131 128/128/127 126/126/125
f 132/132/131 133/133/133 128/128/127
f 125/125/124 127/127/126 134/134/134
f 134/134/134 135/135/135 125/125/124
f 136/136/136 134/134/134 127/127/126
f 127/127/126 128/128/127 136/136/136
f 130/130/129 137/137/137 94/94/93
f 108/108/132 138/138/138 133/133/133
f 135/135/135 137/137/137 130/130/129
f 130/130/129 125/125/124 135/135/135
f 136/136/136 128/128/127 133/133/133
f 133/133/133 138/138/138 136/136/136
f 139/139/139 123/123/122 140/140/140
f 139/139/139 140/140/140 141/141/141
f 139/139/139 141/141/141 142/142/142
f 123/123/122 110/110/109 143/143/143
f 143/143/143 140/140/140 123/123/122
f 110/110/109 113/113/112 144/144/144
f 110/110/109 144/144/144 145/145/145
f 110/110/109 145/145/145 146/146/146
f 113/113/112 118/118/117 147/147/147
f 113/113/112 147/147/147 148/148/148
f 113/113/112 148/148/148 144/144/144
f 149/149/149 124/124/123 150/150/150
f 150/150/150 151/151/147 149/149/149
f 124/124/123 139/139/139 142/142/142
f 124/124/123 142/142/142 152/152/151
f 124/124/123 152/152/151 150/150/150
f 153/153/152 154/154/153 155/155/154
f 155/155/154 156/156/155 153/153/152
f 157/157/156 158/158/157 153/153/152
f 153/153/152 156/156/155 157/157/156
f 159/159/158 158/158/157 157/157/156
f 157/157/156 160/160/159 159/159/158
f 161/161/160 162/162/161 159/159/158
f 159/159/158 160/160/159 161/161/160
f 142/142/142 141/141/141 153/153/152
f 153/153/152 158/158/157 142/142/142
f 141/141/141 140/140/140 154/154/153
f 154/154/153 153/153/152 141/141/141
f 140/140/140 143/143/143 155/155/154
f 155/155/154 154/154/153 140/140/140
f 146/146/146 145/145/145 163/163/155
f 163/163/155 164/164/162 146/146/146
f 145/145/145 144/144/144 165/165/163
f 165/165/163 163/163/155 145/145/145
f 144/144/144 148/148/148 166/166/164
f 166/166/164 165/165/163 144/144/144
f 148/148/148 147/147/147 167/167/165
f 167/167/165 166/166/164 148/148/148
f 151/151/147 150/150/150 162/162/161
f 162/162/161 161/161/160 151/151/147
f 150/150/150 152/152/151 159/159/158
f 159/159/158 162/162/161 150/150/150
f 152/152/151 142/142/142 158/158/157
f 158/158/157 159/159/158 152/152/151
o LowerBody
v -9.861891 0.689237 29.233727
v -11.226221 -0.822560 31.313910
v -9.653187 1.775826 30.707537
vt 0.736681 0.472468
vt 0.788391 0.468180
vt 0.745072 0.440180
vn -0.8561 0.4664 -0.2226
usemtl Material.002
s 1
f 168/168/166 169/169/166 170/170/166
